<svg width="176" height="56" viewBox="0 0 176 56" fill="none" xmlns="http://www.w3.org/2000/svg">
<g clip-path="url(#clip0_8_8)">
<path d="M40.8483 0.672685L27.8451 5.99476C27.1363 6.28766 26.708 6.92336 26.708 7.6914V22.2235L36.9937 18.1034C40.3396 16.7604 42.368 13.7685 42.368 10.1626V1.69457C42.368 0.846253 41.631 0.351582 40.8483 0.672685Z" fill="#01602A"/>
<path d="M10.9132 29.8649V37.6929C10.9132 48.3588 18.6573 56.0869 29.3452 56.0869H40.9375C41.768 56.0869 42.3702 55.4859 42.3702 54.6572V41.8217C42.3702 40.9929 41.768 40.3919 40.9375 40.3919H29.0995C27.7146 40.3919 26.7102 39.3896 26.7102 38.0075V22.2257L12.0611 28.177C11.3459 28.4634 10.9176 29.0991 10.9176 29.8671L10.9132 29.8649Z" fill="#01602A"/>
</g>
<path d="M75.1866 42.14C66.8666 42.14 60.9866 36.18 60.9866 27.86C60.9866 19.54 66.8666 13.58 75.1866 13.58C81.1866 13.58 86.0666 16.86 87.9866 22.38L81.9866 24.3C80.8666 21.22 78.3866 19.22 75.1466 19.22C70.4266 19.22 67.5466 23.02 67.5466 27.86C67.5466 32.74 70.3866 36.54 75.1466 36.54C78.4266 36.54 80.9466 34.5 82.0666 31.3L88.0666 33.26C86.1466 38.86 81.2666 42.14 75.1866 42.14ZM100.138 42.06C94.4184 42.06 90.1784 37.34 90.1784 30.74C90.1784 24.22 94.5784 19.38 100.058 19.38C103.018 19.38 105.258 20.46 106.698 22.66H106.778C106.738 21.7 106.738 20.86 106.738 19.82H112.498V41.5H106.738C106.738 40.34 106.738 39.82 106.778 38.74H106.698C105.178 40.9 102.698 42.06 100.138 42.06ZM101.378 36.86C104.698 36.86 106.858 34.38 106.858 30.74C106.858 27.14 104.658 24.54 101.378 24.54C98.1384 24.54 95.9384 27.26 95.9384 30.74C95.9384 34.22 98.1784 36.86 101.378 36.86ZM125.157 42.06C119.437 42.06 115.197 37.34 115.197 30.74C115.197 24.22 119.597 19.38 125.077 19.38C128.037 19.38 130.277 20.46 131.717 22.66H131.797C131.757 21.7 131.757 20.86 131.757 19.82H137.517V41.5H131.757C131.757 40.34 131.757 39.82 131.797 38.74H131.717C130.197 40.9 127.717 42.06 125.157 42.06ZM126.397 36.86C129.717 36.86 131.877 34.38 131.877 30.74C131.877 27.14 129.677 24.54 126.397 24.54C123.157 24.54 120.957 27.26 120.957 30.74C120.957 34.22 123.197 36.86 126.397 36.86ZM140.736 41.5V19.82H146.496C146.496 20.94 146.496 21.86 146.456 22.86H146.536C147.696 20.7 149.616 19.74 151.696 19.74C152.056 19.74 152.456 19.78 152.856 19.82V25.1H151.256C148.096 25.1 146.496 27.38 146.496 30.5V41.5H140.736ZM164.813 42.1C160.693 42.1 156.973 40.58 154.613 37.18L159.053 33.1C160.653 35.22 162.973 36.5 165.253 36.5C167.413 36.5 168.853 35.38 168.853 33.74C168.853 31.86 167.093 31.1 165.413 30.66C159.893 29.3 155.773 27.38 155.773 22.14C155.773 16.98 160.093 13.58 165.453 13.58C169.213 13.58 172.293 14.98 174.693 17.82L170.173 21.98C168.573 20.06 167.173 19.18 165.453 19.18C163.333 19.18 161.973 20.34 161.973 21.9C161.973 23.62 163.573 24.26 165.253 24.66C170.573 25.98 175.093 27.82 175.093 33.58C175.093 38.5 171.093 42.1 164.813 42.1Z" fill="#01602A"/>
<defs>
<clipPath id="clip0_8_8">
<rect width="56" height="56" fill="white"/>
</clipPath>
</defs>
</svg>
