<svg width="104" height="48" viewBox="0 0 104 48" fill="none" xmlns="http://www.w3.org/2000/svg">
<path fill-rule="evenodd" clip-rule="evenodd" d="M62.6641 0H65.6546C65.7724 0 65.8674 0.0963793 65.8674 0.212838V20.8983C65.8674 21.0161 65.771 21.1125 65.6532 21.1125H62.6628C62.5463 21.1125 62.45 21.0161 62.45 20.8997V0.214178C62.45 0.0963806 62.5463 0 62.6641 0ZM71.7026 0H68.6024C68.4846 0 68.3895 0.0950407 68.3895 0.212838V3.44156C68.3895 3.55936 68.4846 3.6544 68.6024 3.6544H69.6973C71.0092 3.6544 71.9154 2.85927 71.9154 1.5394V0.212838C71.9154 0.0950407 71.8204 0 71.7026 0ZM102.824 5.57371H99.8334C99.7156 5.57371 99.6192 5.67009 99.6192 5.78789V7.65659C98.7437 6.40767 96.8857 5.2645 94.6422 5.2645C90.3922 5.2645 87.1554 8.89614 87.1554 13.339C87.1554 17.7818 90.3908 21.4228 94.6422 21.4228C96.8844 21.4228 98.7437 20.2703 99.6192 19.0321V20.9008C99.6192 21.0172 99.7156 21.1136 99.8334 21.1136H102.824C102.942 21.1136 103.038 21.0172 103.038 20.9008V5.78789C103.037 5.67009 102.942 5.57371 102.824 5.57371ZM95.262 18.3146C92.5286 18.3146 90.6385 16.1353 90.6385 13.3376C90.6385 10.5399 92.5286 8.3714 95.262 8.3714C97.9954 8.3714 99.8963 10.5399 99.8963 13.3376C99.8963 16.1353 97.9968 18.3146 95.262 18.3146ZM86.4619 18.0057H78.2924L86.3763 8.36235C86.4084 8.33023 86.4298 8.27668 86.4298 8.23385V5.78821C86.4298 5.67042 86.3334 5.57404 86.2156 5.57404H74.2124C74.0946 5.57404 73.9982 5.67042 73.9982 5.78821V8.4681C73.9982 8.5859 74.0946 8.68228 74.2124 8.68228H82.0191L73.9246 18.347C73.8924 18.3899 73.8817 18.4327 73.8817 18.4862V20.9011C73.8817 21.0175 73.9781 21.1139 74.0959 21.1139H86.4633C86.5811 21.1139 86.6775 21.0175 86.6775 20.9011V18.2199C86.6748 18.1021 86.5797 18.0057 86.4619 18.0057ZM68.6573 5.57405H71.6477C71.7655 5.57405 71.8619 5.67043 71.8619 5.78822V20.8984C71.8619 21.0162 71.7655 21.1126 71.6477 21.1126H68.6573C68.5941 21.1126 68.5371 21.0849 68.4978 21.0658C68.4638 21.0493 68.4431 21.0392 68.4431 21.0591V5.78822C68.4431 5.67043 68.5395 5.57405 68.6573 5.57405ZM59.7674 5.57371H56.777C56.6592 5.57371 56.5628 5.67009 56.5628 5.78789V7.65659C55.6873 6.40767 53.8293 5.2645 51.5858 5.2645C47.3358 5.2645 44.099 8.89614 44.099 13.339C44.099 17.7818 47.3344 21.4228 51.5858 21.4228C53.828 21.4228 55.6873 20.2703 56.5628 19.0321V20.9008C56.5628 21.0172 56.6592 21.1136 56.777 21.1136H59.7674C59.8852 21.1136 59.9816 21.0172 59.9816 20.9008V5.78789C59.9802 5.67009 59.8839 5.57371 59.7674 5.57371ZM52.2163 18.3146C49.4722 18.3146 47.5807 16.1353 47.5807 13.3376C47.5807 10.5399 49.4708 8.3714 52.2163 8.3714C54.9498 8.3714 56.8399 10.5399 56.8399 13.3376C56.8399 16.1353 54.9511 18.3146 52.2163 18.3146ZM40.4902 15.7083C40.5437 15.6012 40.6816 15.5584 40.7887 15.6226L43.3843 17.0349C43.4914 17.0884 43.5342 17.2169 43.4699 17.3227C42.1032 19.8205 39.4862 21.4228 36.3365 21.4228C31.6701 21.4228 28.1241 17.9411 28.1241 13.339C28.1241 8.74621 31.6701 5.2645 36.3365 5.2645C39.4862 5.2645 42.1032 6.85476 43.4699 9.36465C43.5342 9.46237 43.4914 9.58953 43.3843 9.65379L40.7887 11.0633C40.683 11.1169 40.5437 11.0741 40.4902 10.967C39.7861 9.62033 38.5158 8.62842 36.8599 8.45708C34.0087 8.15723 31.6273 10.4436 31.6059 13.3055C31.5952 16.0938 33.5602 18.2503 36.3365 18.2503C38.2373 18.2503 39.7111 17.1928 40.4902 15.7083ZM18.9801 5.2645C14.378 5.2645 10.832 8.83188 10.832 13.339C10.832 17.8461 14.378 21.4228 18.9801 21.4228C23.5716 21.4228 27.1175 17.8461 27.1175 13.339C27.1175 8.83054 23.5729 5.2645 18.9801 5.2645ZM18.9801 18.2503C16.2146 18.2503 14.2816 16.1045 14.2816 13.3376C14.2816 10.5707 16.2146 8.42495 18.9801 8.42495C21.7136 8.42495 23.6358 10.5721 23.6358 13.3376C23.6358 16.1032 21.7136 18.2503 18.9801 18.2503ZM3.64235 17.6307H10.4773C10.5951 17.6307 10.6915 17.727 10.6915 17.8448V20.8995C10.6915 21.016 10.5951 21.1124 10.4773 21.1124H3.07612C1.37743 21.1124 0 19.735 0 18.0363V5.78666C0 5.66886 0.0963788 5.57248 0.224885 5.57248H3.42817C3.54597 5.57248 3.64235 5.66886 3.64235 5.78666V17.6307Z" fill="#018444"/>
<path fill-rule="evenodd" clip-rule="evenodd" d="M76.5898 34.0609C77.4692 32.8053 79.3366 31.6568 81.5908 31.6568C85.8623 31.6568 89.1151 35.3058 89.1138 39.7727C89.1138 44.2383 85.861 47.8967 81.5895 47.8967C79.3366 47.8967 77.4679 46.7388 76.5884 45.4939V47.372C76.5884 47.4898 76.4921 47.5862 76.3743 47.5862H73.3691C73.2513 47.5862 73.1549 47.4898 73.1549 47.372V28.661V27.8002V25.5166C73.1549 25.4014 73.2486 25.3091 73.3624 25.3091H74.4293C75.7063 25.3091 76.5884 26.0828 76.5884 27.3679V27.7815L76.5886 27.7849L76.5891 27.7892C76.5894 27.7922 76.5898 27.7954 76.5898 27.7989V34.0609ZM76.31 39.7714C76.31 42.5838 78.2202 44.7738 80.9684 44.7738C83.7165 44.7738 85.616 42.5838 85.616 39.7714C85.616 36.959 83.7165 34.7797 80.9684 34.7797C78.2202 34.7797 76.31 36.959 76.31 39.7714ZM93.8125 42.4394H90.2732C90.4619 45.8515 93.0535 48 96.9087 48C100.606 48 103.038 46.0403 103.038 43.0391C103.038 38.7807 99.9573 38.3648 97.4384 38.0248C95.6966 37.7897 94.2234 37.5908 94.2234 36.1828C94.2234 35.1092 95.139 34.4774 96.4977 34.4774C97.7614 34.4774 99.1201 35.2364 99.3101 36.7209H102.88C102.722 33.6247 100.164 31.5713 96.404 31.5713C93.1485 31.5713 90.7163 33.5296 90.7163 36.3099C90.7163 40.2107 93.636 40.7145 96.0904 41.138C97.8701 41.4451 99.4052 41.71 99.4052 43.1971C99.4052 44.1448 98.4253 44.9038 96.9087 44.9038C95.1712 44.9038 93.9704 43.9561 93.8125 42.4394ZM70.2943 31.9686H67.2891C67.1713 31.9686 67.0749 32.065 67.0749 32.1842V34.0622C66.1954 32.8066 64.3267 31.6581 62.0739 31.6581C57.8024 31.6581 54.5496 35.3071 54.5496 39.7727C54.5496 44.2383 57.801 47.8967 62.0739 47.8967C64.3281 47.8967 66.1954 46.7388 67.0749 45.4939V47.372C67.0749 47.4898 67.1713 47.5862 67.2891 47.5862H70.2943C70.4121 47.5862 70.5084 47.4898 70.5084 47.372V32.1828C70.5084 32.065 70.4121 31.9686 70.2943 31.9686ZM62.7057 44.7738C59.9468 44.7738 58.0473 42.5838 58.0473 39.7714C58.0473 36.959 59.9468 34.7797 62.7057 34.7797C65.4539 34.7797 67.3533 36.959 67.3533 39.7714C67.3533 42.5838 65.4539 44.7738 62.7057 44.7738ZM46.775 44.0855H53.6447C53.7625 44.0855 53.8589 44.1819 53.8589 44.2997V47.3691C53.8589 47.4869 53.7625 47.5833 53.6447 47.5833H46.2061C44.4994 47.5833 43.1152 46.2005 43.1152 44.4925V32.1826C43.1152 32.0635 43.2116 31.9671 43.3401 31.9671H46.5608C46.6786 31.9671 46.775 32.0648 46.775 32.1826V44.0855Z" fill="#78DE1F"/>
</svg>
