<svg width="178" height="48" viewBox="0 0 178 48" fill="none" xmlns="http://www.w3.org/2000/svg">
<path d="M25.3999 0.886396L14.3664 5.41171C13.7647 5.66262 13.4005 6.19997 13.4005 6.85501V19.2119L22.1292 15.708C24.9691 14.5667 26.69 12.022 26.69 8.95557V1.7546C26.69 1.03295 26.0661 0.613279 25.3999 0.886396Z" fill="#C0D012"/>
<path d="M0 25.7063V32.361C0 41.4294 6.57036 47.9998 15.6387 47.9998H25.4732C26.1771 47.9998 26.6878 47.4891 26.6878 46.7852V35.8716C26.6878 35.1677 26.1771 34.657 25.4732 34.657H15.4278C14.2532 34.657 13.4005 33.8043 13.4005 32.6297V19.2114L0.970344 24.2697C0.361936 24.5139 0 25.0535 0 25.7063Z" fill="#09547C"/>
<path fill-rule="evenodd" clip-rule="evenodd" d="M133.084 0H136.787C136.945 0 137.103 0.157653 137.103 0.315306V1.8119C137.103 3.3085 135.999 4.41207 134.502 4.41207H133.084C132.926 4.41207 132.768 4.25441 132.768 4.09676V0.315306C132.768 0.157653 132.926 0 133.084 0ZM68.6723 6.65698C62.8413 6.65698 58.3516 11.1867 58.3516 16.9C58.3516 22.6133 62.8436 27.143 68.6723 27.143C74.501 27.143 78.993 22.6133 78.993 16.9C78.993 11.1867 74.501 6.65698 68.6723 6.65698ZM68.6723 23.124C65.1662 23.124 62.7237 20.4061 62.7237 16.9C62.7237 13.3939 65.1662 10.676 68.6723 10.676C72.1784 10.676 74.581 13.3939 74.581 16.9C74.581 20.4061 72.1384 23.124 68.6723 23.124ZM99.6767 21.5497L96.4459 19.8155C96.2927 19.7333 96.0906 19.7755 96.0129 19.9731C95.027 21.825 93.1774 23.124 90.7726 23.124C87.2665 23.124 84.784 20.4061 84.784 16.9C84.784 13.3939 87.2665 10.676 90.7726 10.676C93.1752 10.676 95.027 11.975 96.0129 13.8269C96.0906 14.0245 96.2927 14.0667 96.4459 13.9845L99.6767 12.2503C99.8299 12.1682 99.9121 11.975 99.7944 11.8173C98.0602 8.6665 94.7517 6.65698 90.7726 6.65698C84.864 6.65698 80.3719 11.069 80.3719 16.9C80.3719 22.7309 84.864 27.143 90.7726 27.143C94.7517 27.143 98.1002 25.1335 99.8343 21.9427C99.9121 21.825 99.8299 21.6318 99.6767 21.5497ZM47.7533 22.8087H57.8364C57.9941 22.8087 58.1517 22.9663 58.1517 23.124V26.4325C58.1517 26.5901 57.9941 26.7478 57.8364 26.7478H47.0427C44.7979 26.7478 43.4189 25.3689 43.4189 23.124V7.36755C43.4189 7.2099 43.5766 7.05225 43.7343 7.05225H47.438C47.5956 7.05225 47.7533 7.2099 47.7533 7.36755V22.8087ZM155.932 22.8087H145.596L155.775 10.7138C155.881 10.5873 155.932 10.4385 155.932 10.2808V7.36535C155.932 7.2077 155.775 7.05005 155.617 7.05005H140.489C140.331 7.05005 140.174 7.2077 140.174 7.36535V10.6739C140.174 10.8315 140.331 10.9892 140.489 10.9892H150.326L140.174 23.1218C140.067 23.2528 140.016 23.3971 140.016 23.5548V26.4303C140.016 26.5879 140.174 26.7456 140.331 26.7456H155.932C156.09 26.7456 156.248 26.5879 156.248 26.4303V23.1218C156.248 22.9641 156.09 22.8065 155.932 22.8065V22.8087ZM177.207 7.0522H173.503C173.345 7.0522 173.187 7.20986 173.187 7.36751V9.70788C172.086 8.12025 169.735 6.65918 166.884 6.65918C161.486 6.65918 157.389 11.2689 157.389 16.9022C157.389 22.5355 161.486 27.1452 166.884 27.1452C169.732 27.1452 172.086 25.6841 173.187 24.0965V26.4369C173.187 26.5945 173.345 26.7522 173.503 26.7522H177.207C177.364 26.7522 177.522 26.5945 177.522 26.4369V7.36751C177.522 7.20986 177.364 7.0522 177.207 7.0522ZM167.674 23.2039C164.208 23.2039 161.803 20.4461 161.803 16.9C161.803 13.3539 164.206 10.5961 167.674 10.5961C171.142 10.5961 173.545 13.3539 173.545 16.9C173.545 20.4461 171.142 23.2039 167.674 23.2039ZM117.05 7.0522H120.753C120.911 7.0522 121.069 7.20986 121.069 7.36751V26.4369C121.069 26.5945 120.911 26.7522 120.753 26.7522H117.05C116.892 26.7522 116.734 26.5945 116.734 26.4369V24.0965C115.633 25.6841 113.279 27.1452 110.43 27.1452C105.032 27.1452 100.936 22.5355 100.936 16.9022C100.936 11.2689 105.032 6.65918 110.43 6.65918C113.282 6.65918 115.633 8.12025 116.734 9.70788V7.36751C116.734 7.20986 116.892 7.0522 117.05 7.0522ZM105.35 16.9C105.35 20.4461 107.755 23.2039 111.221 23.2039C114.689 23.2039 117.092 20.4461 117.092 16.9C117.092 13.3539 114.689 10.5961 111.221 10.5961C107.753 10.5961 105.35 13.3539 105.35 16.9ZM136.787 7.05225H133.084C132.909 7.05225 132.768 7.19341 132.768 7.36755V26.4347C132.768 26.6088 132.909 26.75 133.084 26.75H136.787C136.962 26.75 137.103 26.6088 137.103 26.4347V7.36755C137.103 7.19341 136.962 7.05225 136.787 7.05225ZM125.088 0H128.791C128.966 0 129.107 0.141167 129.107 0.315306V26.4347C129.107 26.6088 128.966 26.75 128.791 26.75H125.088C124.914 26.75 124.772 26.6088 124.772 26.4347V0.315306C124.772 0.141167 124.914 0 125.088 0Z" fill="#09547C"/>
<path fill-rule="evenodd" clip-rule="evenodd" d="M108.456 47.9645C107.877 47.9645 107.333 47.8468 106.827 47.6137C106.32 47.3805 105.885 47.0608 105.521 46.6566C105.157 46.2525 104.868 45.784 104.659 45.2489C104.449 44.7137 104.344 44.1386 104.344 43.5236C104.344 42.9085 104.449 42.3334 104.659 41.7983C104.87 41.2631 105.157 40.7946 105.521 40.3905C105.885 39.9864 106.32 39.6666 106.827 39.4335C107.333 39.2003 107.877 39.0826 108.456 39.0826C109.072 39.0826 109.62 39.2159 110.104 39.4845C110.588 39.751 110.95 40.0574 111.188 40.3971V34.9836H113.066V47.7891H111.188V46.6455C110.948 46.9875 110.588 47.2917 110.104 47.5581C109.62 47.8246 109.072 47.9601 108.456 47.9601V47.9645ZM108.798 46.257C109.174 46.257 109.518 46.1859 109.831 46.0438C110.144 45.9017 110.41 45.7085 110.633 45.4642C110.855 45.22 111.028 44.9313 111.154 44.6027C111.279 44.2719 111.343 43.9144 111.343 43.528C111.343 43.1416 111.281 42.7819 111.154 42.4533C111.03 42.1224 110.855 41.836 110.633 41.5918C110.41 41.3475 110.144 41.1543 109.831 41.0122C109.518 40.8701 109.174 40.799 108.798 40.799C108.423 40.799 108.079 40.8701 107.766 41.0122C107.453 41.1543 107.186 41.3475 106.964 41.5918C106.742 41.836 106.569 42.1247 106.443 42.4533C106.318 42.7841 106.254 43.1416 106.254 43.528C106.254 43.9144 106.316 44.2741 106.443 44.6027C106.567 44.9336 106.742 45.22 106.964 45.4642C107.186 45.7085 107.453 45.9017 107.766 46.0438C108.079 46.1859 108.423 46.257 108.798 46.257ZM46.0946 47.5227C46.8962 47.8402 47.7755 48.0001 48.7326 48.0001L48.7303 47.9956C49.1989 47.9956 49.6607 47.9623 50.1226 47.8935C50.5844 47.8247 51.0219 47.7181 51.4371 47.5693C51.8523 47.4205 52.2431 47.2385 52.6073 47.0231C52.9714 46.8077 53.2912 46.5501 53.5643 46.2548V40.7059H48.5793V42.5844H51.6192V45.2822C51.2794 45.5665 50.8464 45.7685 50.3224 45.8884C49.7984 46.0083 49.2632 46.0683 48.717 46.0683C48.022 46.0683 47.3958 45.9573 46.8385 45.7352C46.2812 45.5132 45.806 45.209 45.413 44.8226C45.0199 44.4362 44.7179 43.9766 44.507 43.4481C44.2961 42.9174 44.1917 42.3335 44.1917 41.7317C44.1917 41.13 44.2961 40.566 44.507 40.0419C44.7179 39.5179 45.0177 39.0605 45.4041 38.6675C45.7904 38.2744 46.2501 37.9658 46.7785 37.7371C47.307 37.5084 47.891 37.3951 48.5283 37.3951C49.2677 37.3951 49.9072 37.5128 50.449 37.7526C50.9885 37.9924 51.4593 38.3122 51.8567 38.7097L53.2223 37.293C52.6539 36.7135 51.9789 36.2649 51.1995 35.9452C50.4201 35.6276 49.5297 35.4678 48.5283 35.4678C47.6179 35.4678 46.7719 35.6299 45.9925 35.9541C45.2131 36.2782 44.5425 36.7223 43.9785 37.2863C43.4145 37.8503 42.9727 38.5143 42.6551 39.2759C42.3376 40.0375 42.1777 40.8457 42.1777 41.7339C42.1777 42.6221 42.3398 43.4481 42.664 44.2098C42.9882 44.9736 43.4412 45.6353 44.0207 46.1993C44.6003 46.7633 45.293 47.2029 46.0946 47.5227ZM57.8343 47.6404C58.3806 47.8558 58.9779 47.9646 59.6263 47.9646V47.969C60.5255 47.969 61.3027 47.7936 61.9577 47.4405C62.6128 47.0875 63.1346 46.6034 63.521 45.9883L62.0865 44.9647C61.8578 45.34 61.5447 45.6508 61.1473 45.8951C60.7476 46.1393 60.248 46.2615 59.644 46.2615C59.291 46.2615 58.9579 46.2082 58.6448 46.0994C58.3317 45.9928 58.0586 45.8351 57.8255 45.6309C57.5923 45.4243 57.4036 45.1801 57.2615 44.8959C57.1171 44.6117 57.035 44.2919 57.0128 43.9389H63.723C63.7341 43.8012 63.7408 43.6879 63.7408 43.5969V43.3238C63.7408 42.6399 63.632 42.0337 63.4166 41.5052C63.199 40.9745 62.9037 40.5327 62.5284 40.1729C62.1531 39.8154 61.7157 39.5446 61.2139 39.3625C60.7121 39.1804 60.1836 39.0894 59.6263 39.0894C58.9779 39.0894 58.3806 39.2048 57.8343 39.4313C57.2881 39.66 56.8196 39.9731 56.4266 40.3706C56.0335 40.768 55.7271 41.2388 55.5051 41.7783C55.283 42.3179 55.172 42.8797 55.172 43.5281C55.172 44.1764 55.283 44.7738 55.5051 45.32C55.7271 45.8662 56.0335 46.3347 56.4266 46.7278C56.8196 47.1186 57.2881 47.425 57.8343 47.6404ZM61.0363 41.1611C61.4737 41.4852 61.7446 41.9538 61.8467 42.5688V42.571H57.0994C57.1682 42.2513 57.2814 41.976 57.4413 41.7428C57.6012 41.5097 57.7921 41.3143 58.0142 41.1544C58.2362 40.9945 58.4805 40.8746 58.7492 40.7947C59.0156 40.7147 59.2865 40.6748 59.5596 40.6748C60.1059 40.6748 60.5988 40.8369 61.0363 41.1611ZM68.3838 47.9644C67.6199 47.9644 66.936 47.8156 66.3254 47.5203C65.717 47.2249 65.2574 46.7698 64.9509 46.1547L66.3343 45.1644C66.5053 45.5396 66.7806 45.8305 67.1625 46.0348C67.5444 46.2391 67.9508 46.3412 68.3838 46.3412C68.7146 46.3412 69.0011 46.2635 69.2453 46.1103C69.4896 45.9571 69.6117 45.7328 69.6117 45.4352C69.6117 45.1843 69.5206 44.9801 69.3386 44.8202C69.1565 44.6603 68.8101 44.5027 68.2972 44.3428L67.5467 44.1385C66.7961 43.9342 66.2321 43.6078 65.8569 43.1571C65.4816 42.7085 65.2995 42.1645 65.3106 41.5272C65.3106 41.152 65.3906 40.8122 65.5504 40.5103C65.7103 40.2083 65.9257 39.9529 66.1988 39.742C66.4719 39.531 66.7939 39.3689 67.1625 39.2557C67.5333 39.1424 67.933 39.0847 68.366 39.0847C69.0144 39.0847 69.5828 39.2068 70.0735 39.4511C70.562 39.6953 70.9551 40.0573 71.2526 40.5347L69.9559 41.525C69.7627 41.263 69.5317 41.0521 69.2653 40.8922C68.9988 40.7323 68.688 40.6524 68.3349 40.6524C68.0507 40.6524 67.7887 40.7212 67.5489 40.8566C67.3091 40.9921 67.1914 41.1919 67.1914 41.454C67.1914 41.6582 67.2558 41.847 67.3868 42.018C67.5178 42.1889 67.7931 42.3377 68.215 42.462L69.0854 42.7174C69.836 42.9461 70.4222 43.2592 70.844 43.6567C71.2659 44.0541 71.4769 44.607 71.4769 45.3131C71.4769 45.7239 71.3969 46.0903 71.2371 46.4145C71.0772 46.7387 70.8618 47.0184 70.5887 47.2516C70.3156 47.4847 69.9914 47.6624 69.6161 47.7801C69.2409 47.9 68.8301 47.9599 68.386 47.9599L68.3838 47.9644ZM75.8622 47.7091C76.2152 47.8223 76.5949 47.8801 77.0057 47.8801C77.3011 47.8801 77.5609 47.8623 77.7829 47.829C78.0049 47.7935 78.2137 47.749 78.4068 47.6913V46.0171C78.2692 46.0748 78.1115 46.117 77.9361 46.1459C77.7607 46.1747 77.5808 46.1881 77.3988 46.1881C76.9103 46.1881 76.5483 46.0815 76.3152 45.8639C76.0798 45.6485 75.9643 45.2732 75.9643 44.7381V40.93H78.4068V39.2558H75.9643V36.8821H74.0858V39.2558H72.3094V40.93H74.0858V45.0445C74.0858 45.5219 74.1591 45.9416 74.3079 46.2991C74.4566 46.6588 74.6654 46.9541 74.9318 47.1873C75.1983 47.4226 75.5091 47.5958 75.8622 47.7091ZM83.5628 47.9645C82.9833 47.9645 82.4392 47.8468 81.933 47.6137C81.4267 47.3805 80.9915 47.0608 80.6273 46.6567C80.2632 46.2525 79.9745 45.784 79.7658 45.2489C79.5549 44.7138 79.4505 44.1387 79.4505 43.5236C79.4505 42.9085 79.5549 42.3334 79.7658 41.7983C79.9768 41.2632 80.2632 40.7946 80.6273 40.3905C80.9915 39.9864 81.4267 39.6666 81.933 39.4335C82.4392 39.2003 82.9833 39.0827 83.5628 39.0827C84.1779 39.0827 84.7263 39.2159 85.2104 39.4846C85.6945 39.751 86.0564 40.0574 86.294 40.3972V39.2536H88.1725V47.7913H86.294V46.6478C86.0542 46.9897 85.6945 47.2939 85.2104 47.5604C84.7263 47.8268 84.1779 47.9623 83.5628 47.9623V47.9645ZM81.2402 37.4639C81.3312 36.9177 81.5533 36.4914 81.9063 36.1827C82.2594 35.8763 82.668 35.7209 83.1365 35.7209C83.3763 35.7209 83.6006 35.7608 83.8115 35.8408C84.0224 35.9207 84.2223 36.0095 84.4088 36.105C84.4935 36.1488 84.5745 36.1904 84.652 36.2302L84.6524 36.2304L84.6526 36.2304L84.6528 36.2305C84.7478 36.2793 84.8375 36.3253 84.9217 36.3692C85.0749 36.4492 85.2215 36.4891 85.3569 36.4891C85.5612 36.4891 85.7211 36.4248 85.8343 36.2937C85.9476 36.1627 86.0386 35.9673 86.1075 35.7053H87.3376L87.2688 36.0806C87.1777 36.6268 86.9557 37.0576 86.6026 37.3707C86.2496 37.6838 85.841 37.8392 85.3725 37.8392C85.1327 37.8392 84.9084 37.7992 84.6975 37.7193C84.4865 37.6393 84.2867 37.5505 84.1002 37.455C83.9136 37.3596 83.7404 37.2708 83.5872 37.1908C83.434 37.1109 83.2875 37.0709 83.152 37.0709C82.9477 37.0709 82.7879 37.1331 82.6746 37.2596C82.5614 37.384 82.4703 37.5794 82.4015 37.8392H81.1714L81.2402 37.4639ZM83.9048 46.257C84.28 46.257 84.6242 46.1859 84.9373 46.0438C85.2504 45.9017 85.5168 45.7085 85.7389 45.4643C85.9609 45.22 86.1341 44.9314 86.2607 44.6027C86.385 44.2719 86.4494 43.9144 86.4494 43.528C86.4494 43.1417 86.3872 42.7819 86.2607 42.4533C86.1363 42.1225 85.9609 41.836 85.7389 41.5918C85.5168 41.3475 85.2504 41.1543 84.9373 41.0122C84.6242 40.8701 84.28 40.7991 83.9048 40.7991C83.5295 40.7991 83.1853 40.8701 82.8722 41.0122C82.5592 41.1543 82.2927 41.3475 82.0706 41.5918C81.8486 41.836 81.6754 42.1247 81.5488 42.4533C81.4245 42.7842 81.3601 43.1417 81.3601 43.528C81.3601 43.9144 81.4223 44.2741 81.5488 44.6027C81.6732 44.9336 81.8486 45.22 82.0706 45.4643C82.2927 45.7085 82.5592 45.9017 82.8722 46.0438C83.1853 46.1859 83.5295 46.257 83.9048 46.257ZM92.8089 47.6224C93.3507 47.8511 93.9391 47.9644 94.5764 47.9644C95.2025 47.9644 95.7887 47.8489 96.335 47.6224C96.8812 47.3937 97.3564 47.0784 97.7605 46.6743C98.1646 46.2701 98.4799 45.7994 98.7086 45.2576C98.9374 44.718 99.0506 44.1407 99.0506 43.5257C99.0506 42.9106 98.9351 42.3333 98.7086 41.7915C98.4799 41.2519 98.1646 40.7789 97.7605 40.3748C97.3564 39.9707 96.8812 39.6554 96.335 39.4267C95.7887 39.198 95.2136 39.0847 94.5764 39.0847C93.9391 39.0847 93.3484 39.2002 92.8089 39.4267C92.2693 39.6554 91.7963 39.9707 91.3922 40.3748C90.9881 40.7789 90.6706 41.2519 90.4441 41.7915C90.2154 42.3333 90.1021 42.9128 90.1021 43.5257C90.1021 44.1385 90.2154 44.718 90.4441 45.2576C90.6728 45.7972 90.9881 46.2701 91.3922 46.6743C91.7963 47.0784 92.2671 47.3959 92.8089 47.6224ZM95.6089 46.0192C95.2958 46.1547 94.9516 46.2235 94.5764 46.2235C94.2011 46.2235 93.8525 46.1547 93.535 46.0192C93.2174 45.8816 92.9421 45.6906 92.7156 45.4464C92.4891 45.2021 92.3115 44.9157 92.1871 44.5848C92.0606 44.254 91.9984 43.9009 91.9984 43.5257C91.9984 43.1504 92.0628 42.7973 92.1871 42.4665C92.3115 42.1379 92.4869 41.8492 92.7156 41.6049C92.9421 41.3585 93.2152 41.1675 93.535 41.0321C93.8525 40.8966 94.2011 40.8278 94.5764 40.8278C94.9516 40.8278 95.2958 40.8944 95.6089 41.0321C95.922 41.1697 96.1906 41.3607 96.4193 41.6049C96.6458 41.8492 96.8235 42.1356 96.9478 42.4665C97.0744 42.7973 97.1366 43.1504 97.1366 43.5257C97.1366 43.9009 97.0722 44.254 96.9478 44.5848C96.8235 44.9134 96.6458 45.2021 96.4193 45.4464C96.1929 45.6928 95.922 45.8816 95.6089 46.0192ZM117.678 47.6404C118.224 47.8558 118.822 47.9646 119.47 47.9646L119.472 47.969C120.372 47.969 121.146 47.7936 121.801 47.4405C122.457 47.0875 122.978 46.6034 123.365 45.9883L121.93 44.9647C121.704 45.34 121.391 45.6508 120.991 45.8951C120.591 46.1393 120.092 46.2615 119.488 46.2615C119.135 46.2615 118.802 46.2082 118.489 46.0994C118.175 45.9928 117.902 45.8351 117.669 45.6309C117.436 45.4243 117.247 45.1801 117.105 44.8959C116.961 44.6117 116.879 44.2919 116.857 43.9389H123.567C123.578 43.8012 123.585 43.6879 123.585 43.5969V43.3238C123.585 42.6399 123.476 42.0337 123.26 41.5052C123.043 40.9745 122.747 40.5327 122.372 40.1729C121.997 39.8154 121.559 39.5446 121.058 39.3625C120.556 39.1804 120.027 39.0894 119.47 39.0894C118.822 39.0894 118.224 39.2048 117.678 39.4313C117.132 39.66 116.663 39.9731 116.27 40.3706C115.877 40.768 115.571 41.2388 115.349 41.7783C115.127 42.3179 115.016 42.8797 115.016 43.5281C115.016 44.1764 115.127 44.7738 115.349 45.32C115.571 45.8662 115.877 46.3347 116.27 46.7278C116.661 47.1186 117.132 47.425 117.678 47.6404ZM120.88 41.1611C121.317 41.4852 121.588 41.9538 121.69 42.5688L121.693 42.571H116.945C117.014 42.2513 117.127 41.976 117.287 41.7428C117.447 41.5097 117.638 41.3143 117.86 41.1544C118.08 40.9945 118.324 40.8746 118.593 40.7947C118.859 40.7147 119.13 40.6748 119.403 40.6748C119.95 40.6748 120.443 40.8369 120.88 41.1611ZM129.749 35.6719H136.954V37.5837H131.747V40.7079H135.844V42.6042H131.747V47.7956H129.749V35.6741V35.6719ZM139.94 39.258H138.062V47.7957H139.94V43.6301C139.94 43.2082 139.998 42.8329 140.111 42.5021C140.225 42.1735 140.376 41.8981 140.564 41.6827C140.751 41.4673 140.969 41.3008 141.213 41.1876C141.457 41.0743 141.717 41.0166 141.99 41.0166C142.161 41.0166 142.319 41.0277 142.467 41.0499C142.616 41.0743 142.769 41.1143 142.929 41.1698V39.2402C142.701 39.1936 142.456 39.1714 142.194 39.1714C141.954 39.1714 141.717 39.2091 141.477 39.2824C141.237 39.3557 141.02 39.4645 140.82 39.6066C140.622 39.7487 140.445 39.9197 140.291 40.1195C140.138 40.3194 140.02 40.537 139.94 40.7768V39.258ZM148.103 47.9644C147.466 47.9644 146.877 47.8511 146.335 47.6224C145.794 47.3959 145.323 47.0784 144.919 46.6743C144.515 46.2701 144.199 45.7972 143.971 45.2576C143.742 44.718 143.629 44.1385 143.629 43.5257C143.629 42.9128 143.742 42.3333 143.971 41.7915C144.197 41.2519 144.515 40.7789 144.919 40.3748C145.323 39.9707 145.796 39.6554 146.335 39.4267C146.875 39.2002 147.466 39.0847 148.103 39.0847C148.74 39.0847 149.315 39.198 149.862 39.4267C150.408 39.6554 150.883 39.9707 151.287 40.3748C151.691 40.7789 152.006 41.2519 152.235 41.7915C152.462 42.3333 152.577 42.9106 152.577 43.5257C152.577 44.1407 152.464 44.718 152.235 45.2576C152.006 45.7994 151.691 46.2701 151.287 46.6743C150.883 47.0784 150.408 47.3937 149.862 47.6224C149.315 47.8511 148.729 47.9644 148.103 47.9644ZM148.103 46.2235C148.478 46.2235 148.822 46.1547 149.135 46.0192C149.449 45.8816 149.719 45.6928 149.946 45.4464C150.172 45.2021 150.35 44.9134 150.474 44.5848C150.599 44.254 150.663 43.9009 150.663 43.5257C150.663 43.1504 150.601 42.7973 150.474 42.4665C150.35 42.1356 150.172 41.8492 149.946 41.6049C149.717 41.3607 149.449 41.1697 149.135 41.0321C148.822 40.8944 148.478 40.8278 148.103 40.8278C147.728 40.8278 147.379 40.8966 147.061 41.0321C146.742 41.1675 146.469 41.3585 146.242 41.6049C146.013 41.8492 145.838 42.1379 145.714 42.4665C145.589 42.7973 145.525 43.1504 145.525 43.5257C145.525 43.9009 145.587 44.254 145.714 44.5848C145.838 44.9157 146.016 45.2021 146.242 45.4464C146.469 45.6906 146.744 45.8816 147.061 46.0192C147.381 46.1547 147.728 46.2235 148.103 46.2235ZM156.863 47.7091C157.215 47.8222 157.595 47.88 158.005 47.8801C158.3 47.88 158.559 47.8622 158.781 47.829C159.003 47.7935 159.212 47.749 159.405 47.6913V46.0171C159.27 46.0748 159.112 46.117 158.937 46.1459C158.761 46.1747 158.581 46.1881 158.399 46.1881C157.911 46.1881 157.549 46.0815 157.316 45.8639C157.08 45.6485 156.965 45.2732 156.965 44.7381V40.93H159.407V39.2558H156.965V36.8821H155.086V39.2558H153.31V40.93H155.086V45.0445C155.086 45.5219 155.16 45.9416 155.308 46.2991C155.457 46.6588 155.664 46.9541 155.932 47.1873C156.199 47.4226 156.51 47.5958 156.863 47.7091ZM164.563 47.9644C163.984 47.9644 163.44 47.8467 162.933 47.6136C162.427 47.3804 161.992 47.0607 161.628 46.6565C161.264 46.2524 160.977 45.7839 160.766 45.2488C160.555 44.7136 160.451 44.1385 160.451 43.5235C160.451 42.9084 160.555 42.3333 160.766 41.7982C160.977 41.263 161.264 40.7945 161.628 40.3904C161.992 39.9862 162.427 39.6665 162.933 39.4334C163.44 39.2002 163.984 39.0825 164.563 39.0825C165.178 39.0825 165.727 39.2158 166.211 39.4844C166.695 39.7509 167.057 40.0573 167.294 40.397V39.2535H169.173V47.7912H167.294V46.6477C167.055 46.9896 166.695 47.2938 166.211 47.5603C165.727 47.8267 165.178 47.9622 164.563 47.9622V47.9644ZM164.905 46.2569C165.28 46.2569 165.625 46.1858 165.938 46.0437C166.251 45.9016 166.517 45.7084 166.739 45.4641C166.961 45.2199 167.135 44.9312 167.261 44.6026C167.385 44.2718 167.45 43.9143 167.45 43.5279C167.45 43.1415 167.388 42.7818 167.261 42.4532C167.137 42.1223 166.961 41.8359 166.739 41.5916C166.517 41.3474 166.249 41.1542 165.938 41.0121C165.625 40.87 165.28 40.7989 164.905 40.7989C164.53 40.7989 164.186 40.87 163.873 41.0121C163.56 41.1542 163.293 41.3474 163.071 41.5916C162.849 41.8359 162.676 42.1246 162.549 42.4532C162.425 42.784 162.361 43.1415 162.361 43.5279C162.361 43.9143 162.423 44.274 162.549 44.6026C162.674 44.9334 162.849 45.2199 163.071 45.4641C163.293 45.7084 163.56 45.9016 163.873 46.0437C164.186 46.1858 164.53 46.2569 164.905 46.2569ZM172.373 47.5203C172.983 47.8156 173.669 47.9644 174.431 47.9644V47.9599C174.875 47.9599 175.286 47.9 175.661 47.7801C176.036 47.6624 176.361 47.4847 176.634 47.2516C176.907 47.0184 177.122 46.7387 177.282 46.4145C177.442 46.0903 177.522 45.7239 177.522 45.3131C177.522 44.607 177.313 44.0541 176.891 43.6567C176.469 43.2592 175.883 42.9461 175.133 42.7174L174.262 42.462C173.84 42.3377 173.565 42.1889 173.434 42.018C173.303 41.847 173.239 41.6582 173.239 41.454C173.239 41.1919 173.356 40.9921 173.596 40.8566C173.836 40.7212 174.098 40.6524 174.382 40.6524C174.735 40.6524 175.044 40.7323 175.313 40.8922C175.579 41.0521 175.81 41.263 176.003 41.525L177.3 40.5347C177.005 40.0573 176.612 39.6953 176.123 39.4511C175.635 39.2068 175.064 39.0847 174.415 39.0847C173.982 39.0847 173.581 39.1424 173.212 39.2557C172.841 39.3689 172.519 39.531 172.246 39.742C171.973 39.9529 171.758 40.2083 171.598 40.5103C171.438 40.8122 171.358 41.152 171.358 41.5272C171.347 42.1645 171.529 42.7085 171.904 43.1571C172.279 43.6078 172.843 43.9342 173.594 44.1385L174.344 44.3428C174.857 44.5027 175.204 44.6603 175.386 44.8202C175.568 44.9801 175.659 45.1843 175.659 45.4352C175.659 45.7328 175.537 45.9571 175.293 46.1103C175.048 46.2635 174.762 46.3412 174.431 46.3412C173.998 46.3412 173.592 46.2391 173.21 46.0348C172.828 45.8305 172.553 45.5396 172.382 45.1644L170.998 46.1547C171.305 46.7698 171.762 47.2249 172.373 47.5203Z" fill="#09547C"/>
</svg>
